# Blender 4.4.3
# www.blender.org
mtllib slingshot2.mtl
o Sphere
v 0.612372 0.500000 -0.612372
v 0.404278 -3.485735 -0.394659
v 0.866025 0.500000 0.000000
v 0.558863 -3.485735 0.000000
v 0.612372 0.500000 0.612372
v 0.404278 -3.485735 0.394659
v 0.000000 0.500000 0.729787
v 0.000000 -3.485735 0.558132
v 0.000000 -3.985735 0.000000
v 0.000000 1.000000 0.000000
v 0.000000 0.500000 -0.729787
v 0.000000 -3.485735 -0.558132
v 1.701691 3.168274 -0.487341
v 1.955344 3.168274 0.000000
v 1.701691 3.168274 0.487341
v 1.089318 3.168274 0.590826
v 0.994752 3.384574 0.000000
v 1.089318 3.168274 -0.590826
v -0.612372 0.500000 -0.612372
v -0.404278 -3.485735 -0.394659
v -0.866025 0.500000 0.000000
v -0.558863 -3.485735 0.000000
v -0.612372 0.500000 0.612372
v -0.404278 -3.485735 0.394659
v -1.701691 3.168274 -0.487341
v -1.955344 3.168274 0.000000
v -1.701691 3.168274 0.487341
v -1.089318 3.168274 0.590826
v -0.994752 3.384574 0.000000
v -1.089318 3.168274 -0.590826
vn 0.2605 -0.7191 -0.6442
vn 0.2659 -0.0540 -0.9625
vn 0.1774 -0.0238 -0.9838
vn 0.6451 -0.7211 -0.2527
vn 0.9245 -0.0700 -0.3748
vn 0.1774 -0.0238 0.9838
vn 0.6451 -0.7211 0.2527
vn 0.9245 -0.0700 0.3748
vn -0.8885 0.3738 -0.2664
vn 0.2605 -0.7191 0.6442
vn 0.2659 -0.0540 0.9625
vn 0.8541 -0.3395 -0.3940
vn 0.0566 0.9404 -0.3352
vn 0.2183 0.9693 -0.1136
vn 0.2183 0.9693 0.1136
vn 0.0566 0.9404 0.3352
vn 0.8541 -0.3395 0.3940
vn -0.8885 0.3738 0.2664
vn -0.2605 -0.7191 -0.6442
vn -0.2659 -0.0540 -0.9625
vn -0.1774 -0.0238 -0.9838
vn -0.6451 -0.7211 -0.2527
vn -0.9245 -0.0700 -0.3748
vn -0.1774 -0.0238 0.9838
vn -0.6451 -0.7211 0.2527
vn -0.9245 -0.0700 0.3748
vn 0.8885 0.3738 -0.2664
vn -0.2605 -0.7191 0.6442
vn -0.2659 -0.0540 0.9625
vn -0.8541 -0.3395 -0.3940
vn -0.0566 0.9404 -0.3352
vn -0.2183 0.9693 -0.1136
vn -0.2183 0.9693 0.1136
vn -0.0566 0.9404 0.3352
vn -0.8541 -0.3395 0.3940
vn 0.8885 0.3738 0.2664
vt 0.687500 0.000000
vt 0.750000 0.333333
vt 0.625000 0.333333
vt 0.750000 0.666667
vt 0.625000 0.666667
vt 0.562500 0.000000
vt 0.500000 0.333333
vt 0.500000 0.666667
vt 0.250000 0.666667
vt 0.375000 0.666667
vt 0.437500 0.000000
vt 0.375000 0.333333
vt 0.000000 0.000000
vt 0.312500 0.000000
vt 0.250000 0.333333
vt 0.687500 1.000000
vt 0.562500 1.000000
vt 0.437500 1.000000
vt 0.312500 1.000000
s 0
f 9/1/1 12/2/1 2/3/1
f 12/2/2 11/4/2 1/5/2 2/3/2
f 1/5/3 11/4/3 18/4/3 13/5/3
f 9/6/4 2/3/4 4/7/4
f 2/3/5 1/5/5 3/8/5 4/7/5
f 7/9/6 5/10/6 15/10/6 16/9/6
f 9/11/7 4/7/7 6/12/7
f 4/7/8 3/8/8 5/10/8 6/12/8
f 11/13/9 10/13/9 17/13/9 18/13/9
f 9/14/10 6/12/10 8/15/10
f 6/12/11 5/10/11 7/9/11 8/15/11
f 3/8/12 1/5/12 13/5/12 14/8/12
f 18/4/13 17/16/13 13/5/13
f 13/5/14 17/17/14 14/8/14
f 14/8/15 17/18/15 15/10/15
f 15/10/16 17/19/16 16/9/16
f 5/10/17 3/8/17 14/8/17 15/10/17
f 10/13/18 7/13/18 16/13/18 17/13/18
f 9/1/19 20/3/19 12/2/19
f 12/2/20 20/3/20 19/5/20 11/4/20
f 19/5/21 25/5/21 30/4/21 11/4/21
f 9/6/22 22/7/22 20/3/22
f 20/3/23 22/7/23 21/8/23 19/5/23
f 7/9/24 28/9/24 27/10/24 23/10/24
f 9/11/25 24/12/25 22/7/25
f 22/7/26 24/12/26 23/10/26 21/8/26
f 11/13/27 30/13/27 29/13/27 10/13/27
f 9/14/28 8/15/28 24/12/28
f 24/12/29 8/15/29 7/9/29 23/10/29
f 21/8/30 26/8/30 25/5/30 19/5/30
f 30/4/31 25/5/31 29/16/31
f 25/5/32 26/8/32 29/17/32
f 26/8/33 27/10/33 29/18/33
f 27/10/34 28/9/34 29/19/34
f 23/10/35 27/10/35 26/8/35 21/8/35
f 10/13/36 29/13/36 28/13/36 7/13/36
o Cylinder
v 0.650730 2.157410 -0.670146
v 1.004521 3.031959 -0.640859
v 1.173920 1.869138 -0.571717
v 1.529325 2.743687 -0.556269
v 1.412898 1.725003 0.000000
v 1.773222 2.599551 0.000000
v 1.173920 1.869138 0.571717
v 1.529325 2.743687 0.556269
v 0.650730 2.157410 0.670146
v 1.004521 3.031959 0.640859
v 0.437977 2.193629 0.000000
v 0.855125 3.176095 -0.000000
vn 0.1524 -0.0365 -0.9876
vn 0.8316 -0.3364 -0.4420
vn 0.8316 -0.3364 0.4420
vn 0.1524 -0.0365 0.9876
vn 0.5158 0.8567 -0.0000
vn -0.8810 0.3704 0.2943
vn -0.8810 0.3704 -0.2943
vn -0.4474 -0.8943 -0.0000
vt 1.000000 0.500000
vt 1.000000 1.000000
vt 0.833333 1.000000
vt 0.833333 0.500000
vt 0.666667 1.000000
vt 0.666667 0.500000
vt 0.500000 1.000000
vt 0.500000 0.500000
vt 0.333333 1.000000
vt 0.333333 0.500000
vt 0.457846 0.370000
vt 0.250000 0.490000
vt 0.042154 0.370000
vt 0.042154 0.130000
vt 0.250000 0.010000
vt 0.457846 0.130000
vt 0.166667 1.000000
vt 0.166667 0.500000
vt -0.000000 1.000000
vt -0.000000 0.500000
vt 0.750000 0.490000
vt 0.957846 0.370000
vt 0.957846 0.130000
vt 0.750000 0.010000
vt 0.542154 0.130000
vt 0.542154 0.370000
s 0
f 31/20/37 32/21/37 34/22/37 33/23/37
f 33/23/38 34/22/38 36/24/38 35/25/38
f 35/25/39 36/24/39 38/26/39 37/27/39
f 37/27/40 38/26/40 40/28/40 39/29/40
f 34/30/41 32/31/41 42/32/41 40/33/41 38/34/41 36/35/41
f 39/29/42 40/28/42 42/36/42 41/37/42
f 41/37/43 42/36/43 32/38/43 31/39/43
f 31/40/44 33/41/44 35/42/44 37/43/44 39/44/44 41/45/44
o Cylinder.001
v -0.650730 2.157410 0.670146
v -1.004521 3.031959 0.640859
v -1.173920 1.869138 0.571718
v -1.529325 2.743687 0.556269
v -1.412898 1.725003 0.000000
v -1.773222 2.599551 0.000000
v -1.173921 1.869138 -0.571717
v -1.529325 2.743687 -0.556269
v -0.650730 2.157410 -0.670146
v -1.004521 3.031959 -0.640859
v -0.437977 2.193629 0.000000
v -0.855125 3.176095 0.000000
vn -0.1524 -0.0365 0.9876
vn -0.8316 -0.3364 0.4420
vn -0.8316 -0.3364 -0.4420
vn -0.1524 -0.0365 -0.9876
vn -0.5158 0.8567 -0.0000
vn 0.8810 0.3704 -0.2943
vn 0.8810 0.3704 0.2943
vn 0.4474 -0.8943 -0.0000
vt 1.000000 0.500000
vt 1.000000 1.000000
vt 0.833333 1.000000
vt 0.833333 0.500000
vt 0.666667 1.000000
vt 0.666667 0.500000
vt 0.500000 1.000000
vt 0.500000 0.500000
vt 0.333333 1.000000
vt 0.333333 0.500000
vt 0.457846 0.370000
vt 0.250000 0.490000
vt 0.042154 0.370000
vt 0.042154 0.130000
vt 0.250000 0.010000
vt 0.457846 0.130000
vt 0.166667 1.000000
vt 0.166667 0.500000
vt -0.000000 1.000000
vt -0.000000 0.500000
vt 0.750000 0.490000
vt 0.957846 0.370000
vt 0.957846 0.130000
vt 0.750000 0.010000
vt 0.542154 0.130000
vt 0.542154 0.370000
s 0
f 43/46/45 44/47/45 46/48/45 45/49/45
f 45/49/46 46/48/46 48/50/46 47/51/46
f 47/51/47 48/50/47 50/52/47 49/53/47
f 49/53/48 50/52/48 52/54/48 51/55/48
f 46/56/49 44/57/49 54/58/49 52/59/49 50/60/49 48/61/49
f 51/55/50 52/54/50 54/62/50 53/63/50
f 53/63/51 54/62/51 44/64/51 43/65/51
f 43/66/52 45/67/52 47/68/52 49/69/52 51/70/52 53/71/52
o Cube
v 0.897333 1.976543 0.799082
v 1.249704 2.856261 0.799082
v 1.062949 1.910205 0.441073
v 1.415320 2.789924 0.441073
v 1.013921 1.929843 0.861669
v 1.366292 2.809562 0.861669
v 1.179537 1.863506 0.503660
v 1.531909 2.743224 0.503660
v 0.354101 2.066537 1.407959
v 0.706472 2.946255 1.407959
v 0.740935 2.922384 1.470547
v 0.388564 2.042666 1.470547
v 0.071496 2.122356 1.543798
v 0.227712 2.950945 1.602209
v 0.214992 2.938994 1.675490
v 0.058776 2.110405 1.617079
v 0.000000 2.950945 1.601661
v 0.000000 2.938994 1.676037
v 0.000000 2.113183 1.617079
v 0.000000 2.125134 1.543798
v -0.897333 1.976543 0.799082
v -1.249704 2.856261 0.799082
v -1.062949 1.910205 0.441073
v -1.415320 2.789924 0.441073
v -1.013921 1.929843 0.861669
v -1.366292 2.809562 0.861669
v -1.179537 1.863506 0.503660
v -1.531909 2.743224 0.503660
v -0.354101 2.066537 1.407959
v -0.706472 2.946255 1.407959
v -0.740935 2.922384 1.470547
v -0.388564 2.042666 1.470547
v -0.071496 2.122356 1.543798
v -0.227712 2.950945 1.602209
v -0.214992 2.938994 1.675490
v -0.058776 2.110405 1.617079
vn -0.8309 0.3328 -0.4460
vn 0.4140 -0.1658 -0.8950
vn 0.8309 -0.3328 0.4460
vn -0.6958 0.2787 -0.6620
vn -0.3718 -0.9283 -0.0000
vn 0.3718 0.9283 -0.0000
vn -0.2824 -0.9378 -0.2021
vn -0.3160 -0.9373 -0.1471
vn 0.3160 0.9373 0.1471
vn 0.6491 -0.2600 0.7149
vn -0.9716 0.1928 -0.1372
vn -0.3838 0.1454 -0.9119
vn 0.1143 0.9650 0.2361
vn 0.3644 -0.1400 0.9207
vn -0.0000 0.9871 0.1598
vn 0.0420 0.9855 0.1644
vn 0.0013 -0.0709 0.9975
vn 0.0025 0.0699 -0.9976
vn -1.0000 -0.0000 -0.0000
vn 0.8309 0.3328 -0.4460
vn -0.4140 -0.1658 -0.8950
vn -0.8309 -0.3328 0.4460
vn 0.6958 0.2787 -0.6620
vn 0.3718 -0.9283 -0.0000
vn -0.3718 0.9283 -0.0000
vn 0.2824 -0.9378 -0.2021
vn 0.3160 -0.9373 -0.1471
vn -0.3160 0.9373 0.1471
vn -0.6491 -0.2600 0.7149
vn 0.9716 0.1928 -0.1372
vn 0.3838 0.1454 -0.9119
vn -0.1143 0.9650 0.2361
vn -0.3644 -0.1400 0.9207
vn -0.0420 0.9855 0.1644
vn -0.0013 -0.0709 0.9975
vn -0.0025 0.0699 -0.9976
vt 0.375000 0.000000
vt 0.625000 0.000000
vt 0.625000 0.250000
vt 0.375000 0.250000
vt 0.625000 0.500000
vt 0.375000 0.500000
vt 0.625000 0.750000
vt 0.375000 0.750000
vt 0.125000 0.500000
vt 0.125000 0.750000
vt 0.875000 0.500000
vt 0.875000 0.750000
vt 0.625000 1.000000
vt 0.375000 1.000000
vt 0.000000 0.000000
s 0
f 55/72/53 56/73/53 58/74/53 57/75/53
f 57/75/54 58/74/54 62/76/54 61/77/54
f 61/77/55 62/76/55 60/78/55 59/79/55
f 56/73/56 55/72/56 63/72/56 64/73/56
f 57/80/57 61/77/57 59/79/57 55/81/57
f 62/76/58 58/82/58 56/83/58 60/78/58
f 63/81/59 66/79/59 70/79/59 67/81/59
f 55/81/60 59/79/60 66/79/60 63/81/60
f 60/78/61 56/83/61 64/83/61 65/78/61
f 59/79/62 60/78/62 65/78/62 66/79/62
f 70/79/63 69/78/63 68/84/63 67/85/63
f 64/73/64 63/72/64 67/72/64 68/73/64
f 65/78/65 64/83/65 68/83/65 69/78/65
f 66/79/66 65/78/66 69/78/66 70/79/66
f 69/78/67 68/84/67 71/84/67 72/78/67
f 67/86/68 74/86/68 73/86/68 70/86/68
f 69/86/69 72/86/69 73/86/69 70/86/69
f 67/86/70 74/86/70 71/86/70 68/86/70
f 71/86/71 74/86/71 73/86/71 72/86/71
f 75/72/72 77/75/72 78/74/72 76/73/72
f 77/75/73 81/77/73 82/76/73 78/74/73
f 81/77/74 79/79/74 80/78/74 82/76/74
f 76/73/75 84/73/75 83/72/75 75/72/75
f 77/80/76 75/81/76 79/79/76 81/77/76
f 82/76/77 80/78/77 76/83/77 78/82/77
f 83/81/78 87/81/78 90/79/78 86/79/78
f 75/81/79 83/81/79 86/79/79 79/79/79
f 80/78/80 85/78/80 84/83/80 76/83/80
f 79/79/81 86/79/81 85/78/81 80/78/81
f 90/79/82 87/85/82 88/84/82 89/78/82
f 84/73/83 88/73/83 87/72/83 83/72/83
f 85/78/84 89/78/84 88/83/84 84/83/84
f 86/79/85 90/79/85 89/78/85 85/78/85
f 89/78/67 72/78/67 71/84/67 88/84/67
f 87/86/86 90/86/86 73/86/86 74/86/86
f 89/86/87 90/86/87 73/86/87 72/86/87
f 87/86/88 88/86/88 71/86/88 74/86/88
o Cube.001
v 0.897333 1.976543 1.297155
v 1.249704 2.856261 1.297155
v 1.062949 1.910205 0.387812
v 1.415320 2.789924 0.387812
v 1.013921 1.929843 1.456127
v 1.366292 2.809562 1.456127
v 1.179537 1.863506 0.546784
v 1.531909 2.743224 0.546784
v 0.354101 2.066537 2.843704
v 0.706472 2.946255 2.843704
v 0.740935 2.922384 3.002676
v 0.388564 2.042666 3.002676
v 0.071496 2.122356 3.188734
v 0.227712 2.950945 3.437732
v 0.214992 2.938994 3.523231
v 0.058776 2.110405 3.374868
v 0.000000 2.950945 3.436341
v 0.000000 2.938994 3.524622
v 0.000000 2.113183 3.374868
v 0.000000 2.125134 3.188734
v -0.897333 1.976543 1.297155
v -1.249704 2.856261 1.297155
v -1.062949 1.910205 0.387812
v -1.415320 2.789924 0.387812
v -1.013921 1.929843 1.456127
v -1.366292 2.809562 1.456127
v -1.179537 1.863506 0.546784
v -1.531909 2.743224 0.546784
v -0.354101 2.066537 2.843704
v -0.706472 2.946255 2.843704
v -0.740935 2.922384 3.002676
v -0.388564 2.042666 3.002676
v -0.071496 2.122356 3.188734
v -0.227712 2.950945 3.437732
v -0.214992 2.938994 3.523231
v -0.058776 2.110405 3.374868
vn -0.9109 0.3649 -0.1925
vn 0.7284 -0.2918 -0.6199
vn 0.9109 -0.3649 0.1925
vn -0.8768 0.3512 -0.3284
vn -0.3718 -0.9283 -0.0000
vn 0.3718 0.9283 -0.0000
vn -0.2874 -0.9544 -0.0810
vn -0.3189 -0.9460 -0.0585
vn 0.3189 0.9460 0.0585
vn 0.8612 -0.3449 0.3734
vn -0.9766 0.2018 -0.0737
vn -0.7297 0.3063 -0.6113
vn 0.1636 0.9781 0.1288
vn 0.6840 -0.2627 0.6805
vn -0.0000 0.9907 0.1363
vn 0.0425 0.9969 0.0655
vn 0.0032 -0.1776 0.9841
vn 0.0071 0.2869 -0.9579
vn -1.0000 -0.0000 -0.0000
vn 0.9109 0.3649 -0.1925
vn -0.7284 -0.2918 -0.6199
vn -0.9109 -0.3649 0.1925
vn 0.8768 0.3512 -0.3284
vn 0.3718 -0.9283 -0.0000
vn -0.3718 0.9283 -0.0000
vn 0.2874 -0.9544 -0.0810
vn 0.3189 -0.9460 -0.0585
vn -0.3189 0.9460 0.0585
vn -0.8612 -0.3449 0.3734
vn 0.9766 0.2018 -0.0737
vn 0.7297 0.3063 -0.6113
vn -0.1636 0.9781 0.1288
vn -0.6840 -0.2627 0.6805
vn -0.0425 0.9969 0.0655
vn -0.0032 -0.1776 0.9841
vn -0.0071 0.2869 -0.9579
vt 0.375000 0.000000
vt 0.625000 0.000000
vt 0.625000 0.250000
vt 0.375000 0.250000
vt 0.625000 0.500000
vt 0.375000 0.500000
vt 0.625000 0.750000
vt 0.375000 0.750000
vt 0.125000 0.500000
vt 0.125000 0.750000
vt 0.875000 0.500000
vt 0.875000 0.750000
vt 0.625000 1.000000
vt 0.375000 1.000000
vt 0.000000 0.000000
s 0
f 91/87/89 92/88/89 94/89/89 93/90/89
f 93/90/90 94/89/90 98/91/90 97/92/90
f 97/92/91 98/91/91 96/93/91 95/94/91
f 92/88/92 91/87/92 99/87/92 100/88/92
f 93/95/93 97/92/93 95/94/93 91/96/93
f 98/91/94 94/97/94 92/98/94 96/93/94
f 99/96/95 102/94/95 106/94/95 103/96/95
f 91/96/96 95/94/96 102/94/96 99/96/96
f 96/93/97 92/98/97 100/98/97 101/93/97
f 95/94/98 96/93/98 101/93/98 102/94/98
f 106/94/99 105/93/99 104/99/99 103/100/99
f 100/88/100 99/87/100 103/87/100 104/88/100
f 101/93/101 100/98/101 104/98/101 105/93/101
f 102/94/102 101/93/102 105/93/102 106/94/102
f 105/93/103 104/99/103 107/99/103 108/93/103
f 103/101/104 110/101/104 109/101/104 106/101/104
f 105/101/105 108/101/105 109/101/105 106/101/105
f 103/101/106 110/101/106 107/101/106 104/101/106
f 107/101/107 110/101/107 109/101/107 108/101/107
f 111/87/108 113/90/108 114/89/108 112/88/108
f 113/90/109 117/92/109 118/91/109 114/89/109
f 117/92/110 115/94/110 116/93/110 118/91/110
f 112/88/111 120/88/111 119/87/111 111/87/111
f 113/95/112 111/96/112 115/94/112 117/92/112
f 118/91/113 116/93/113 112/98/113 114/97/113
f 119/96/114 123/96/114 126/94/114 122/94/114
f 111/96/115 119/96/115 122/94/115 115/94/115
f 116/93/116 121/93/116 120/98/116 112/98/116
f 115/94/117 122/94/117 121/93/117 116/93/117
f 126/94/118 123/100/118 124/99/118 125/93/118
f 120/88/119 124/88/119 123/87/119 119/87/119
f 121/93/120 125/93/120 124/98/120 120/98/120
f 122/94/121 126/94/121 125/93/121 121/93/121
f 125/93/103 108/93/103 107/99/103 124/99/103
f 123/101/122 126/101/122 109/101/122 110/101/122
f 125/101/123 126/101/123 109/101/123 108/101/123
f 123/101/124 124/101/124 107/101/124 110/101/124
