# Blender 4.5.1 LTS
# www.blender.org
mtllib gatedoor.mtl
o Cube
v 3.000000 -1.000000 -0.500000
v 3.000000 8.558498 -0.500000
v 3.000000 -1.000000 0.500000
v 3.000000 8.558498 0.500000
v 0.000000 -1.000000 -0.500000
v 0.000000 8.558498 -0.500000
v 0.000000 -1.000000 0.500000
v 0.000000 8.558498 0.500000
v 2.384024 9.389833 -0.500000
v 2.384024 9.389833 0.500000
v 0.000000 9.389833 0.500000
v 0.000000 9.389833 -0.500000
v 1.761633 9.739901 -0.500000
v 1.761633 9.739901 0.500000
v 0.000000 9.739901 0.500000
v 0.000000 9.739901 -0.500000
v 0.762076 10.019332 -0.500000
v 0.762076 10.019332 0.500000
v 0.000000 10.019332 0.500000
v 0.000000 10.019332 -0.500000
vn 1.0000 -0.0000 -0.0000
vn -0.0000 -0.0000 1.0000
vn -1.0000 -0.0000 -0.0000
vn -0.0000 -0.0000 -1.0000
vn -0.0000 -1.0000 -0.0000
vn 0.8035 0.5953 -0.0000
vn 0.4902 0.8716 -0.0000
vn -0.0000 1.0000 -0.0000
vn 0.2692 0.9631 -0.0000
vt 0.375000 0.000000
vt 0.625000 0.000000
vt 0.625000 0.250000
vt 0.375000 0.250000
vt 0.625000 0.500000
vt 0.375000 0.500000
vt 0.625000 0.750000
vt 0.375000 0.750000
vt 0.625000 1.000000
vt 0.375000 1.000000
vt 0.125000 0.500000
vt 0.125000 0.750000
vt 0.875000 0.500000
vt 0.875000 0.750000
s 0
f 1/1/1 2/2/1 4/3/1 3/4/1
f 3/4/2 4/3/2 8/5/2 7/6/2
f 7/6/3 8/5/3 6/7/3 5/8/3
f 5/8/4 6/7/4 2/9/4 1/10/4
f 3/11/5 7/6/5 5/8/5 1/12/5
f 2/9/4 6/7/4 12/7/4 9/9/4
f 12/7/3 11/5/3 15/5/3 16/7/3
f 8/5/2 4/3/2 10/3/2 11/5/2
f 6/7/3 8/5/3 11/5/3 12/7/3
f 4/3/6 2/2/6 9/2/6 10/3/6
f 16/7/3 15/5/3 19/5/3 20/7/3
f 10/3/7 9/2/7 13/2/7 14/3/7
f 9/9/4 12/7/4 16/7/4 13/9/4
f 11/5/2 10/3/2 14/3/2 15/5/2
f 19/5/8 18/13/8 17/14/8 20/7/8
f 14/3/9 13/2/9 17/2/9 18/3/9
f 13/9/4 16/7/4 20/7/4 17/9/4
f 15/5/2 14/3/2 18/3/2 19/5/2
o Cube.001
v -3.000000 -1.000000 0.500000
v -3.000000 8.558498 0.500000
v -3.000000 -1.000000 -0.500000
v -3.000000 8.558498 -0.500000
v 0.000000 -1.000000 0.500000
v 0.000000 8.558498 0.500000
v 0.000000 -1.000000 -0.500000
v 0.000000 8.558498 -0.500000
v -2.384024 9.389833 0.500000
v -2.384024 9.389833 -0.500000
v 0.000000 9.389833 -0.500000
v 0.000000 9.389833 0.500000
v -1.761633 9.739901 0.500000
v -1.761633 9.739901 -0.500000
v 0.000000 9.739901 -0.500000
v 0.000000 9.739901 0.500000
v -0.762076 10.019332 0.500000
v -0.762076 10.019332 -0.500000
v 0.000000 10.019332 -0.500000
v 0.000000 10.019332 0.500000
vn -1.0000 -0.0000 -0.0000
vn -0.0000 -0.0000 -1.0000
vn 1.0000 -0.0000 -0.0000
vn -0.0000 -0.0000 1.0000
vn -0.0000 -1.0000 -0.0000
vn -0.8035 0.5953 -0.0000
vn -0.4902 0.8716 -0.0000
vn -0.0000 1.0000 -0.0000
vn -0.2692 0.9631 -0.0000
vt 0.375000 0.000000
vt 0.625000 0.000000
vt 0.625000 0.250000
vt 0.375000 0.250000
vt 0.625000 0.500000
vt 0.375000 0.500000
vt 0.625000 0.750000
vt 0.375000 0.750000
vt 0.625000 1.000000
vt 0.375000 1.000000
vt 0.125000 0.500000
vt 0.125000 0.750000
vt 0.875000 0.500000
vt 0.875000 0.750000
s 0
f 21/15/10 22/16/10 24/17/10 23/18/10
f 23/18/11 24/17/11 28/19/11 27/20/11
f 27/20/12 28/19/12 26/21/12 25/22/12
f 25/22/13 26/21/13 22/23/13 21/24/13
f 23/25/14 27/20/14 25/22/14 21/26/14
f 22/23/13 26/21/13 32/21/13 29/23/13
f 32/21/12 31/19/12 35/19/12 36/21/12
f 28/19/11 24/17/11 30/17/11 31/19/11
f 26/21/12 28/19/12 31/19/12 32/21/12
f 24/17/15 22/16/15 29/16/15 30/17/15
f 36/21/12 35/19/12 39/19/12 40/21/12
f 30/17/16 29/16/16 33/16/16 34/17/16
f 29/23/13 32/21/13 36/21/13 33/23/13
f 31/19/11 30/17/11 34/17/11 35/19/11
f 39/19/17 38/27/17 37/28/17 40/21/17
f 34/17/18 33/16/18 37/16/18 38/17/18
f 33/23/13 36/21/13 40/21/13 37/23/13
f 35/19/11 34/17/11 38/17/11 39/19/11
o doorframe
v -4.320000 -1.000000 1.000000
v -4.320000 11.669656 1.000000
v -4.320000 -1.000000 -1.000000
v -4.320000 11.669656 -1.000000
v 4.320000 -1.000000 1.000000
v 4.320000 11.669656 1.000000
v 4.320000 -1.000000 -1.000000
v 4.320000 11.669656 -1.000000
v 0.762076 10.019332 -1.000000
v 2.384024 9.389833 -1.000000
v 1.761633 9.739901 -1.000000
v 0.000000 10.019332 -1.000000
v 3.000000 8.558498 -1.000000
v 3.000000 -1.000000 -1.000000
v 0.000000 10.019332 1.000000
v 3.000000 8.558498 1.000000
v 2.384024 9.389833 1.000000
v 1.761633 9.739901 1.000000
v 0.762076 10.019332 1.000000
v 3.000000 -1.000000 1.000000
v -3.000000 -1.000000 -1.000000
v -3.000000 8.558498 -1.000000
v -2.384024 9.389833 -1.000000
v -1.761633 9.739901 -1.000000
v -0.762076 10.019332 -1.000000
v -3.000000 -1.000000 1.000000
v -3.000000 8.558498 1.000000
v -2.384024 9.389833 1.000000
v -1.761633 9.739901 1.000000
v -0.762076 10.019332 1.000000
vn -1.0000 -0.0000 -0.0000
vn -0.0000 -0.0000 -1.0000
vn 1.0000 -0.0000 -0.0000
vn -0.0000 -0.0000 1.0000
vn -0.0000 -1.0000 -0.0000
vn -0.0000 1.0000 -0.0000
vn -0.8035 -0.5953 -0.0000
vn -0.4902 -0.8716 -0.0000
vn -0.2692 -0.9631 -0.0000
vn 0.8035 -0.5953 -0.0000
vn 0.4902 -0.8716 -0.0000
vn 0.2692 -0.9631 -0.0000
vt 0.375000 0.000000
vt 0.625000 0.000000
vt 0.625000 0.250000
vt 0.375000 0.250000
vt 0.625000 0.500000
vt 0.375000 0.500000
vt 0.375000 0.461806
vt 0.563610 0.461806
vt 0.580014 0.443982
vt 0.586922 0.425973
vt 0.592435 0.397051
vt 0.592435 0.375000
vt 0.592436 0.352949
vt 0.586922 0.324027
vt 0.580014 0.306018
vt 0.563610 0.288194
vt 0.375000 0.288194
vt 0.625000 0.750000
vt 0.375000 0.750000
vt 0.375000 0.788194
vt 0.625000 1.000000
vt 0.375000 1.000000
vt 0.375000 0.961806
vt 0.563610 0.961806
vt 0.580014 0.943982
vt 0.586922 0.925973
vt 0.592436 0.897051
vt 0.592435 0.875000
vt 0.592435 0.852949
vt 0.586922 0.824027
vt 0.580014 0.806018
vt 0.563610 0.788194
vt 0.336806 0.750000
vt 0.336806 0.500000
vt 0.163194 0.750000
vt 0.125000 0.750000
vt 0.125000 0.500000
vt 0.163194 0.500000
vt 0.875000 0.500000
vt 0.875000 0.750000
vt 0.625000 0.235000
vt 0.625000 0.015000
vt 0.375000 0.015000
vt 0.375000 0.235000
vt 0.625000 0.235000
vt 0.625000 0.015000
vt 0.625000 0.735000
vt 0.875000 0.735000
vt 0.875000 0.515000
vt 0.625000 0.515000
vt 0.625000 0.235000
vt 0.625000 0.015000
vt 0.625000 0.015000
s 0
f 41/29/19 42/30/19 44/31/19 43/32/19
f 43/32/20 44/31/20 48/33/20 47/34/20 54/35/20 53/36/20 50/37/20 51/38/20 49/39/20 52/40/20 65/41/20 64/42/20 63/43/20 62/44/20 61/45/20
f 47/34/21 48/33/21 46/46/21 45/47/21
f 60/48/22 45/47/22 46/46/22 42/49/22 41/50/22 66/51/22 67/52/22 68/53/22 69/54/22 70/55/22 55/56/22 59/57/22 58/58/22 57/59/22 56/60/22
f 47/34/23 45/47/23 60/61/23 54/62/23
f 66/63/23 41/64/23 43/65/23 61/66/23
f 48/33/24 44/67/24 42/68/24 46/46/24
f 56/69/19 53/70/19 54/71/19 60/72/19
f 57/69/25 50/70/25 53/70/25 56/69/25
f 58/73/26 51/74/26 50/70/26 57/69/26
f 52/75/23 49/76/23 59/77/23 55/78/23
f 59/79/27 49/80/27 51/81/27 58/73/27
f 66/71/21 61/72/21 62/69/21 67/70/21
f 62/69/28 63/69/28 68/70/28 67/70/28
f 63/69/29 64/73/29 69/74/29 68/70/29
f 52/78/23 55/75/23 70/76/23 65/77/23
f 64/73/30 65/79/30 70/80/30 69/81/30
