# Blender 4.5.1 LTS
# www.blender.org
mtllib gatedoor.mtl
o Cube
v 3.000000 -1.000000 -0.500000
v 3.000000 8.558498 -0.500000
v 3.000000 -1.000000 0.500000
v 3.000000 8.558498 0.500000
v 0.000000 -1.000000 -0.500000
v 0.000000 8.558498 -0.500000
v 0.000000 -1.000000 0.500000
v 0.000000 8.558498 0.500000
v 2.384024 9.389833 -0.500000
v 2.384024 9.389833 0.500000
v 0.000000 9.389833 0.500000
v 0.000000 9.389833 -0.500000
v 1.761633 9.739901 -0.500000
v 1.761633 9.739901 0.500000
v 0.000000 9.739901 0.500000
v 0.000000 9.739901 -0.500000
v 0.762076 10.019332 -0.500000
v 0.762076 10.019332 0.500000
v 0.000000 10.019332 0.500000
v 0.000000 10.019332 -0.500000
vn 1.0000 -0.0000 -0.0000
vn -0.0000 -0.0000 1.0000
vn -1.0000 -0.0000 -0.0000
vn -0.0000 -0.0000 -1.0000
vn -0.0000 -1.0000 -0.0000
vn 0.8035 0.5953 -0.0000
vn 0.4902 0.8716 -0.0000
vn -0.0000 1.0000 -0.0000
vn 0.2692 0.9631 -0.0000
vt 0.375000 0.000000
vt 0.625000 0.000000
vt 0.625000 0.250000
vt 0.375000 0.250000
vt 0.625000 0.500000
vt 0.375000 0.500000
vt 0.625000 0.750000
vt 0.375000 0.750000
vt 0.625000 1.000000
vt 0.375000 1.000000
vt 0.125000 0.500000
vt 0.125000 0.750000
vt 0.875000 0.500000
vt 0.875000 0.750000
s 0
f 1/1/1 2/2/1 4/3/1 3/4/1
f 3/4/2 4/3/2 8/5/2 7/6/2
f 7/6/3 8/5/3 6/7/3 5/8/3
f 5/8/4 6/7/4 2/9/4 1/10/4
f 3/11/5 7/6/5 5/8/5 1/12/5
f 2/9/4 6/7/4 12/7/4 9/9/4
f 12/7/3 11/5/3 15/5/3 16/7/3
f 8/5/2 4/3/2 10/3/2 11/5/2
f 6/7/3 8/5/3 11/5/3 12/7/3
f 4/3/6 2/2/6 9/2/6 10/3/6
f 16/7/3 15/5/3 19/5/3 20/7/3
f 10/3/7 9/2/7 13/2/7 14/3/7
f 9/9/4 12/7/4 16/7/4 13/9/4
f 11/5/2 10/3/2 14/3/2 15/5/2
f 19/5/8 18/13/8 17/14/8 20/7/8
f 14/3/9 13/2/9 17/2/9 18/3/9
f 13/9/4 16/7/4 20/7/4 17/9/4
f 15/5/2 14/3/2 18/3/2 19/5/2
o Cube.001
v -3.000000 -1.000000 0.500000
v -3.000000 8.558498 0.500000
v -3.000000 -1.000000 -0.500000
v -3.000000 8.558498 -0.500000
v 0.000000 -1.000000 0.500000
v 0.000000 8.558498 0.500000
v 0.000000 -1.000000 -0.500000
v 0.000000 8.558498 -0.500000
v -2.384024 9.389833 0.500000
v -2.384024 9.389833 -0.500000
v 0.000000 9.389833 -0.500000
v 0.000000 9.389833 0.500000
v -1.761633 9.739901 0.500000
v -1.761633 9.739901 -0.500000
v 0.000000 9.739901 -0.500000
v 0.000000 9.739901 0.500000
v -0.762076 10.019332 0.500000
v -0.762076 10.019332 -0.500000
v 0.000000 10.019332 -0.500000
v 0.000000 10.019332 0.500000
vn -1.0000 -0.0000 -0.0000
vn -0.0000 -0.0000 -1.0000
vn 1.0000 -0.0000 -0.0000
vn -0.0000 -0.0000 1.0000
vn -0.0000 -1.0000 -0.0000
vn -0.8035 0.5953 -0.0000
vn -0.4902 0.8716 -0.0000
vn -0.0000 1.0000 -0.0000
vn -0.2692 0.9631 -0.0000
vt 0.375000 0.000000
vt 0.625000 0.000000
vt 0.625000 0.250000
vt 0.375000 0.250000
vt 0.625000 0.500000
vt 0.375000 0.500000
vt 0.625000 0.750000
vt 0.375000 0.750000
vt 0.625000 1.000000
vt 0.375000 1.000000
vt 0.125000 0.500000
vt 0.125000 0.750000
vt 0.875000 0.500000
vt 0.875000 0.750000
s 0
f 21/15/10 22/16/10 24/17/10 23/18/10
f 23/18/11 24/17/11 28/19/11 27/20/11
f 27/20/12 28/19/12 26/21/12 25/22/12
f 25/22/13 26/21/13 22/23/13 21/24/13
f 23/25/14 27/20/14 25/22/14 21/26/14
f 22/23/13 26/21/13 32/21/13 29/23/13
f 32/21/12 31/19/12 35/19/12 36/21/12
f 28/19/11 24/17/11 30/17/11 31/19/11
f 26/21/12 28/19/12 31/19/12 32/21/12
f 24/17/15 22/16/15 29/16/15 30/17/15
f 36/21/12 35/19/12 39/19/12 40/21/12
f 30/17/16 29/16/16 33/16/16 34/17/16
f 29/23/13 32/21/13 36/21/13 33/23/13
f 31/19/11 30/17/11 34/17/11 35/19/11
f 39/19/17 38/27/17 37/28/17 40/21/17
f 34/17/18 33/16/18 37/16/18 38/17/18
f 33/23/13 36/21/13 40/21/13 37/23/13
f 35/19/11 34/17/11 38/17/11 39/19/11
o doorframe
v -4.320000 -1.000000 1.000000
v -4.320000 11.669656 1.000000
v -4.320000 -1.000000 -1.000000
v -4.320000 11.669656 -1.000000
v 4.320000 -1.000000 1.000000
v 4.320000 11.669656 1.000000
v 4.320000 -1.000000 -1.000000
v 4.320000 11.669656 -1.000000
v 0.762076 10.019332 -1.000000
v 2.384024 9.389833 -1.000000
v 1.761633 9.739901 -1.000000
v 0.000000 10.019332 -1.000000
v 3.000000 8.558498 -1.000000
v 3.000000 -1.000000 -1.000000
v 0.000000 10.019332 1.000000
v 3.000000 8.558498 1.000000
v 2.384024 9.389833 1.000000
v 1.761633 9.739901 1.000000
v 0.762076 10.019332 1.000000
v 3.000000 -1.000000 1.000000
v -3.000000 -1.000000 -1.000000
v -3.000000 8.558498 -1.000000
v -2.384024 9.389833 -1.000000
v -1.761633 9.739901 -1.000000
v -0.762076 10.019332 -1.000000
v -3.000000 -1.000000 1.000000
v -3.000000 8.558498 1.000000
v -2.384024 9.389833 1.000000
v -1.761633 9.739901 1.000000
v -0.762076 10.019332 1.000000
v -4.320000 3.223219 1.000000
v -4.320000 7.446437 1.000000
v 4.320000 3.223219 1.000000
v 4.320000 7.446437 1.000000
v 3.000000 5.372332 1.000000
v 3.000000 2.186166 1.000000
v 3.880000 -1.000000 1.000000
v 3.440000 -1.000000 1.000000
v -1.440000 11.669656 1.000000
v 1.440000 11.669656 1.000000
v -3.880000 -1.000000 1.000000
v -3.440000 -1.000000 1.000000
v -3.000000 2.186166 1.000000
v -3.000000 5.372333 1.000000
v -2.794674 8.835610 1.000000
v -2.589349 9.112722 1.000000
v -2.176560 9.506522 1.000000
v -1.969097 9.623211 1.000000
v -1.428447 9.833044 1.000000
v -1.095262 9.926188 1.000000
v -0.254025 10.019332 1.000000
v -0.508051 10.019332 1.000000
v 0.254025 10.019332 1.000000
v 0.508051 10.019332 1.000000
v 1.428447 9.833044 1.000000
v 1.095262 9.926188 1.000000
v 2.176560 9.506522 1.000000
v 1.969097 9.623211 1.000000
v 2.794674 8.835610 1.000000
v 2.589349 9.112722 1.000000
v -4.320000 9.558046 1.000000
v 4.320000 9.558046 1.000000
v 3.000000 0.593083 1.000000
v 3.220000 -1.000000 1.000000
v 2.880000 11.669656 1.000000
v -3.220000 -1.000000 1.000000
v -3.000000 6.965415 1.000000
v -2.486687 9.251278 1.000000
v -1.865365 9.681556 1.000000
v -0.928669 9.972759 1.000000
v -0.635063 10.019332 1.000000
v 0.635063 10.019332 1.000000
v 0.928669 9.972759 1.000000
v 1.865365 9.681556 1.000000
v 2.486687 9.251278 1.000000
v -4.320000 1.111609 1.000000
v -4.320000 5.334828 1.000000
v 4.320000 1.111609 1.000000
v 4.320000 5.334828 1.000000
v 3.000000 6.965415 1.000000
v 3.000000 3.779249 1.000000
v 4.100000 -1.000000 1.000000
v 3.660000 -1.000000 1.000000
v -2.880000 11.669656 1.000000
v 0.000000 11.669656 1.000000
v -4.100000 -1.000000 1.000000
v -3.660000 -1.000000 1.000000
v -3.000000 0.593083 1.000000
v -3.000000 3.779249 1.000000
v -2.897337 8.697054 1.000000
v -2.692012 8.974167 1.000000
v -2.280292 9.448177 1.000000
v -2.072828 9.564867 1.000000
v -1.595040 9.786472 1.000000
v -1.261854 9.879616 1.000000
v -0.127013 10.019332 1.000000
v -0.381038 10.019332 1.000000
v 0.127013 10.019332 1.000000
v 0.381038 10.019332 1.000000
v 1.595040 9.786472 1.000000
v 1.261854 9.879616 1.000000
v 2.280292 9.448177 1.000000
v 2.072828 9.564867 1.000000
v 2.897337 8.697054 1.000000
v 2.692012 8.974167 1.000000
vn -1.0000 -0.0000 -0.0000
vn -0.0000 -0.0000 -1.0000
vn 1.0000 -0.0000 -0.0000
vn -0.0000 -0.0000 1.0000
vn -0.0000 -1.0000 -0.0000
vn -0.0000 1.0000 -0.0000
vn -0.8035 -0.5953 -0.0000
vn -0.4902 -0.8716 -0.0000
vn -0.2692 -0.9631 -0.0000
vn 0.8035 -0.5953 -0.0000
vn 0.4902 -0.8716 -0.0000
vn 0.2692 -0.9631 -0.0000
vt 0.375000 0.000000
vt 0.416667 0.000000
vt 0.458333 0.000000
vt 0.500000 0.000000
vt 0.541667 0.000000
vt 0.583333 0.000000
vt 0.625000 0.000000
vt 0.625000 0.250000
vt 0.375000 0.250000
vt 0.592435 0.375000
vt 0.592436 0.352949
vt 0.375000 0.500000
vt 0.625000 0.500000
vt 0.625000 0.750000
vt 0.583333 0.750000
vt 0.541667 0.750000
vt 0.500000 0.750000
vt 0.458333 0.750000
vt 0.416667 0.750000
vt 0.375000 0.750000
vt 0.583333 1.000000
vt 0.586922 0.925973
vt 0.587841 0.921153
vt 0.368634 0.750000
vt 0.362269 0.750000
vt 0.355903 0.750000
vt 0.349537 0.750000
vt 0.343171 0.750000
vt 0.336806 0.750000
vt 0.336806 0.500000
vt 0.163194 0.750000
vt 0.156829 0.750000
vt 0.150463 0.750000
vt 0.144097 0.750000
vt 0.137731 0.750000
vt 0.131366 0.750000
vt 0.125000 0.750000
vt 0.125000 0.500000
vt 0.163194 0.500000
vt 0.875000 0.500000
vt 0.875000 0.750000
vt 0.833333 0.750000
vt 0.791667 0.750000
vt 0.750000 0.750000
vt 0.708333 0.750000
vt 0.666667 0.750000
vt 0.625000 0.235000
vt 0.625000 0.015000
vt 0.375000 0.015000
vt 0.375000 0.235000
vt 0.416667 0.235000
vt 0.458333 0.235000
vt 0.500000 0.235000
vt 0.541667 0.235000
vt 0.583333 0.235000
vt 0.625000 0.235000
vt 0.625000 0.235000
vt 0.625000 0.015000
vt 0.625000 0.235000
vt 0.625000 0.735000
vt 0.875000 0.735000
vt 0.875000 0.515000
vt 0.833333 0.515000
vt 0.791667 0.515000
vt 0.750000 0.515000
vt 0.708333 0.515000
vt 0.666667 0.515000
vt 0.625000 0.515000
vt 0.625000 0.235000
vt 0.625000 0.015000
vt 0.625000 0.015000
vt 0.583333 0.015000
vt 0.541667 0.015000
vt 0.500000 0.015000
vt 0.458333 0.015000
vt 0.416667 0.015000
vt 0.666667 0.735000
vt 0.708333 0.735000
vt 0.750000 0.735000
vt 0.791667 0.735000
vt 0.833333 0.735000
vt 0.625000 0.015000
vt 0.625000 0.015000
vt 0.625000 0.015000
vt 0.625000 0.015000
vt 0.625000 0.015000
vt 0.406435 0.788194
vt 0.375000 0.788194
vt 0.375000 0.781829
vt 0.375000 0.775463
vt 0.437870 0.788194
vt 0.375000 0.769097
vt 0.375000 0.762731
vt 0.469305 0.788194
vt 0.375000 0.756366
vt 0.500740 0.788194
vt 0.532175 0.788194
vt 0.563610 0.788194
vt 0.569078 0.794136
vt 0.566344 0.791165
vt 0.571812 0.797106
vt 0.590598 0.843308
vt 0.625000 0.791667
vt 0.592435 0.852949
vt 0.587841 0.828847
vt 0.586922 0.824027
vt 0.574546 0.800077
vt 0.588760 0.833668
vt 0.625000 0.833333
vt 0.589679 0.838488
vt 0.625000 0.875000
vt 0.577280 0.803047
vt 0.582317 0.812021
vt 0.581165 0.809019
vt 0.580014 0.806018
vt 0.625000 0.916667
vt 0.592436 0.897051
vt 0.625000 0.958333
vt 0.625000 1.000000
vt 0.590598 0.906692
vt 0.588760 0.916332
vt 0.591516 0.848129
vt 0.585770 0.821025
vt 0.584619 0.818024
vt 0.583468 0.815022
vt 0.589679 0.911512
vt 0.541667 1.000000
vt 0.563610 0.961806
vt 0.566344 0.958835
vt 0.500000 1.000000
vt 0.532175 0.961806
vt 0.458333 1.000000
vt 0.469305 0.961806
vt 0.416667 1.000000
vt 0.375000 1.000000
vt 0.406435 0.961806
vt 0.375000 0.993634
vt 0.437870 0.961806
vt 0.500740 0.961806
vt 0.375000 0.987269
vt 0.375000 0.980903
vt 0.375000 0.974537
vt 0.592435 0.856624
vt 0.592435 0.860299
vt 0.375000 0.968171
vt 0.375000 0.961806
vt 0.592435 0.863975
vt 0.592435 0.867650
vt 0.592435 0.871325
vt 0.592435 0.875000
vt 0.592435 0.878675
vt 0.592435 0.882350
vt 0.569078 0.955864
vt 0.571812 0.952894
vt 0.592435 0.886025
vt 0.592435 0.889701
vt 0.574546 0.949923
vt 0.577280 0.946953
vt 0.592435 0.893376
vt 0.580014 0.943982
vt 0.581165 0.940981
vt 0.582317 0.937979
vt 0.591517 0.901871
vt 0.583468 0.934978
vt 0.584619 0.931976
vt 0.585770 0.928975
vt 0.375000 0.288194
vt 0.563610 0.288194
vt 0.563610 0.461806
vt 0.375000 0.461806
vt 0.580014 0.306018
vt 0.580014 0.443982
vt 0.586922 0.425973
vt 0.586922 0.324027
vt 0.592435 0.397051
s 0
f 41/29/19 116/30/19 71/31/19 117/32/19 72/33/19 101/34/19 42/35/19 44/36/19 43/37/19
f 52/38/20 65/39/20 44/36/20
f 47/40/21 48/41/21 46/42/21 102/43/21 74/44/21 119/45/21 73/46/21 118/47/21 45/48/21
f 101/49/22 69/50/22 134/51/22
f 47/40/23 45/48/23 122/52/23 77/53/23 123/54/23 78/55/23 104/56/23 60/57/23 54/58/23
f 66/59/23 106/60/23 82/61/23 127/62/23 81/63/23 126/64/23 41/65/23 43/66/23 61/67/23
f 48/41/24 44/68/24 42/69/24 124/70/24 79/71/24 125/72/24 80/73/24 105/74/24 46/42/24
f 56/75/19 53/76/19 54/77/19 60/78/19 103/79/19 76/80/19 121/81/19 75/82/19 120/83/19
f 57/75/25 50/76/25 53/76/25 56/75/25 144/84/25 99/84/25 145/84/25 100/84/25 115/84/25
f 58/85/26 51/86/26 50/76/26 57/75/26 142/84/26 97/87/26 143/87/26 98/87/26 114/87/26
f 52/88/23 49/89/23 59/90/23 112/91/23 94/92/23 139/93/23 93/94/23 138/95/23 55/96/23
f 59/97/27 49/98/27 51/99/27 58/85/27 140/87/27 95/87/27 141/84/27 96/75/27 113/97/27
f 66/77/21 61/78/21 62/75/21 67/76/21 107/100/21 84/101/21 129/102/21 83/103/21 128/104/21
f 62/75/28 63/75/28 68/76/28 108/76/28 86/76/28 131/76/28 85/76/28 130/76/28 67/76/28
f 63/75/29 64/85/29 69/86/29 109/86/29 88/86/29 133/86/29 87/86/29 132/76/29 68/76/29
f 52/96/23 55/88/23 136/105/23 91/106/23 137/107/23 92/108/23 111/109/23 70/89/23 65/90/23
f 64/85/30 65/97/30 70/98/30 110/110/30 90/111/30 135/112/30 89/113/30 134/114/30 69/99/30
f 103/115/22 60/116/22 104/117/22
f 103/115/22 104/117/22 78/118/22
f 76/119/22 103/115/22 118/47/22
f 103/115/22 78/118/22 123/120/22
f 103/115/22 123/120/22 77/121/22
f 118/47/22 103/115/22 45/48/22
f 121/122/22 76/119/22 73/46/22
f 76/119/22 118/47/22 73/46/22
f 103/115/22 77/121/22 122/123/22
f 75/124/22 121/122/22 119/45/22
f 122/123/22 45/48/22 103/115/22
f 120/125/22 75/124/22 119/45/22
f 121/122/22 73/46/22 119/45/22
f 56/126/22 120/125/22 74/44/22
f 99/127/22 144/128/22 102/43/22
f 144/128/22 56/126/22 102/43/22
f 145/129/22 99/127/22 102/43/22
f 120/125/22 119/45/22 74/44/22
f 56/126/22 74/44/22 102/43/22
f 102/43/22 46/42/22 96/130/22
f 46/42/22 105/131/22 59/132/22
f 102/43/22 140/133/22 58/134/22
f 100/135/22 145/129/22 102/43/22
f 140/133/22 102/43/22 95/136/22
f 105/131/22 80/137/22 59/132/22
f 95/136/22 102/43/22 141/138/22
f 80/137/22 125/139/22 59/132/22
f 115/140/22 100/135/22 102/43/22
f 97/141/22 142/142/22 102/43/22
f 142/142/22 57/143/22 102/43/22
f 57/143/22 115/140/22 102/43/22
f 141/138/22 102/43/22 96/130/22
f 125/139/22 79/144/22 70/145/22
f 124/146/22 42/147/22 70/145/22
f 42/147/22 101/49/22 90/148/22
f 89/149/22 101/49/22 134/51/22
f 79/144/22 124/146/22 70/145/22
f 96/130/22 46/42/22 113/150/22
f 114/151/22 98/152/22 102/43/22
f 98/152/22 143/153/22 102/43/22
f 143/153/22 97/141/22 102/43/22
f 101/49/22 89/149/22 135/154/22
f 101/49/22 72/155/22 67/156/22
f 101/49/22 67/156/22 130/157/22
f 72/155/22 117/158/22 107/159/22
f 67/156/22 72/155/22 107/159/22
f 58/134/22 114/151/22 102/43/22
f 117/158/22 71/160/22 129/161/22
f 116/162/22 41/163/22 128/164/22
f 41/163/22 126/165/22 128/164/22
f 71/160/22 116/162/22 83/166/22
f 46/42/22 59/132/22 113/150/22
f 107/159/22 117/158/22 84/167/22
f 128/164/22 126/165/22 81/168/22
f 128/164/22 81/168/22 127/169/22
f 128/164/22 127/169/22 82/170/22
f 84/167/22 117/158/22 129/161/22
f 59/132/22 125/139/22 112/171/22
f 112/171/22 125/139/22 94/172/22
f 106/173/22 66/174/22 128/164/22
f 106/173/22 128/164/22 82/170/22
f 128/164/22 83/166/22 116/162/22
f 94/172/22 125/139/22 139/175/22
f 139/175/22 125/139/22 93/176/22
f 83/166/22 129/161/22 71/160/22
f 93/176/22 125/139/22 138/177/22
f 138/177/22 125/139/22 55/178/22
f 55/178/22 125/139/22 136/179/22
f 136/179/22 125/139/22 91/180/22
f 130/157/22 85/181/22 101/49/22
f 85/181/22 131/182/22 101/49/22
f 91/180/22 125/139/22 137/183/22
f 137/183/22 125/139/22 92/184/22
f 101/49/22 131/182/22 86/185/22
f 101/49/22 86/185/22 108/186/22
f 92/184/22 125/139/22 111/187/22
f 111/187/22 125/139/22 70/145/22
f 101/49/22 108/186/22 68/188/22
f 68/188/22 132/189/22 101/49/22
f 132/189/22 87/190/22 101/49/22
f 90/148/22 110/191/22 42/147/22
f 110/191/22 70/145/22 42/147/22
f 101/49/22 87/190/22 133/192/22
f 133/192/22 88/193/22 101/49/22
f 88/193/22 109/194/22 101/49/22
f 135/154/22 90/148/22 101/49/22
f 101/49/22 109/194/22 69/50/22
f 61/195/20 43/37/20 62/196/20
f 43/37/20 44/36/20 62/196/20
f 48/41/20 47/40/20 53/197/20
f 47/40/20 54/198/20 53/197/20
f 63/199/20 62/196/20 44/36/20
f 48/41/20 53/197/20 50/200/20
f 48/41/20 50/200/20 51/201/20
f 64/202/20 63/199/20 44/36/20
f 65/39/20 64/202/20 44/36/20
f 44/36/20 48/41/20 52/38/20
f 48/41/20 51/201/20 49/203/20
f 48/41/20 49/203/20 52/38/20
