# Blender 4.4.3
# www.blender.org
mtllib rockbarrier.mtl
o Icosphere
v 0.000000 -4.883796 0.000000
v 5.655406 -2.251295 3.497005
v -2.098672 -2.184131 5.504356
v -6.791565 -2.184110 0.000000
v -2.219438 -2.309812 -5.821095
v 5.586593 -2.220736 -3.458865
v 2.116664 2.204060 5.555194
v -5.625134 2.236057 3.482728
v -5.768318 2.292974 -3.571378
v 2.098672 2.184131 -5.504356
v 6.791565 2.184110 0.000000
v 0.000000 4.883796 0.000000
v -1.372893 -4.564100 3.558201
v 3.537629 -4.555672 2.185284
v 1.996018 -2.567595 5.234929
v 6.535341 -2.597054 -0.001073
v 3.229564 -4.154422 -1.999542
v -3.991976 -4.154409 0.000000
v -5.225566 -2.567589 3.235366
v -1.242407 -4.188486 -3.259797
v -5.310094 -2.609121 -3.287700
v 1.996018 -2.567595 -5.234929
v 7.221581 0.000000 1.999550
v 7.221581 0.000000 -1.999550
v -0.002077 0.000082 6.544658
v 4.729356 -0.000284 5.545866
v -7.221581 0.000000 1.999550
v -4.463179 0.000000 5.234962
v -4.463179 0.000000 -5.234962
v -7.221581 0.000000 -1.999550
v 4.607623 0.000000 -5.404382
v 0.000000 0.000000 -6.470770
v 5.225566 2.567589 3.235366
v -1.996018 2.567595 5.234929
v -6.670185 2.651477 -0.000000
v -1.996018 2.567595 -5.234929
v 5.225566 2.567589 -3.235366
v 1.283392 4.322248 3.366054
v 3.991976 4.154409 0.000000
v -3.229564 4.154422 1.999542
v -3.229564 4.154422 -1.999542
v 1.233559 4.154423 -3.235355
vn 0.0299 -0.9944 0.1009
vn 0.6457 -0.7268 0.2343
vn -0.1797 -0.9835 0.0190
vn -0.1780 -0.9740 -0.1399
vn 0.0735 -0.9693 -0.2348
vn 0.8651 -0.4289 0.2600
vn 0.0174 -0.4435 0.8961
vn -0.8149 -0.4705 0.3386
vn -0.5687 -0.3654 -0.7369
vn 0.4253 -0.4831 -0.7654
vn 0.8043 -0.1836 0.5652
vn -0.2769 -0.1834 0.9432
vn -0.9812 -0.1932 -0.0000
vn -0.2668 -0.0147 -0.9636
vn 0.7801 -0.1808 -0.5989
vn 0.3471 0.7365 0.5806
vn -0.3203 0.7965 0.5128
vn -0.4909 0.8458 -0.2089
vn 0.0285 0.7601 -0.6492
vn 0.5663 0.8046 -0.1787
vn 0.1777 0.9724 -0.1515
vn 0.3523 0.8864 -0.3004
vn 0.3074 0.7734 -0.5544
vn -0.0675 0.9675 -0.2438
vn -0.1320 0.8692 -0.4766
vn -0.2829 0.8141 -0.5071
vn -0.2203 0.9754 -0.0000
vn -0.4003 0.9164 -0.0000
vn -0.5060 0.8254 0.2503
vn -0.0967 0.9751 0.1995
vn -0.1794 0.8545 0.4875
vn 0.0097 0.7205 0.6934
vn 0.1789 0.9793 0.0951
vn 0.3984 0.8744 0.2770
vn 0.5663 0.8046 0.1787
vn 0.8149 0.4705 -0.3386
vn 0.7547 0.3078 -0.5794
vn 0.4665 0.5026 -0.7278
vn -0.0203 0.4208 -0.9069
vn -0.2585 0.2484 -0.9335
vn -0.3962 0.3807 -0.8355
vn -0.8862 0.3820 -0.2621
vn -0.9791 0.2036 -0.0000
vn -0.8590 0.4099 0.3067
vn -0.4267 0.4100 0.8061
vn -0.2719 0.2613 0.9262
vn -0.0317 0.4345 0.9001
vn 0.4605 0.5429 0.7023
vn 0.7700 0.3381 0.5411
vn 0.8149 0.4705 0.3386
vn 0.2205 0.2097 -0.9526
vn 0.2163 -0.2817 -0.9348
vn 0.1065 -0.3628 -0.9258
vn -0.7604 0.0375 -0.6483
vn -0.7404 -0.2308 -0.6313
vn -0.8329 -0.4539 -0.3166
vn -0.7562 0.1123 0.6447
vn -0.7329 -0.2690 0.6249
vn -0.4916 -0.4395 0.7518
vn 0.2008 0.2340 0.9513
vn 0.1956 -0.3205 0.9268
vn 0.4027 -0.5200 0.7533
vn 0.9812 0.1932 -0.0000
vn 0.9668 -0.2555 -0.0000
vn 0.8517 -0.4419 -0.2818
vn 0.3308 -0.7913 -0.5142
vn 0.1416 -0.8664 -0.4789
vn 0.0345 -0.7995 -0.5996
vn -0.3146 -0.8187 -0.4805
vn -0.3456 -0.8950 -0.2821
vn -0.5689 -0.8083 -0.1518
vn -0.5663 -0.8046 0.1787
vn -0.4623 -0.8530 0.2421
vn -0.3919 -0.6511 0.6501
vn 0.5263 -0.8176 -0.2334
vn 0.4810 -0.8687 -0.1187
vn 0.1564 -0.9820 -0.1057
vn -0.0086 -0.6346 0.7728
vn 0.1681 -0.7847 0.5966
vn 0.3588 -0.6885 0.6302
vt 0.181819 0.000000
vt 0.227273 0.078731
vt 0.136365 0.078731
vt 0.272728 0.157461
vt 0.318182 0.078731
vt 0.363637 0.157461
vt 0.909091 0.000000
vt 0.954545 0.078731
vt 0.863636 0.078731
vt 0.727273 0.000000
vt 0.772727 0.078731
vt 0.681818 0.078731
vt 0.545455 0.000000
vt 0.590909 0.078731
vt 0.500000 0.078731
vt 0.318182 0.236191
vt 0.090910 0.157461
vt 0.181819 0.157461
vt 0.136365 0.236191
vt 0.818182 0.157461
vt 0.909091 0.157461
vt 0.863636 0.236191
vt 0.636364 0.157461
vt 0.727273 0.157461
vt 0.681818 0.236191
vt 0.454546 0.157461
vt 0.545455 0.157461
vt 0.500000 0.236191
vt 0.227273 0.236191
vt 0.045455 0.236191
vt 0.772727 0.236191
vt 0.590909 0.236191
vt 0.409092 0.236191
vt 0.181819 0.314921
vt 0.272728 0.314921
vt 0.227273 0.393651
vt 0.000000 0.314921
vt 0.090910 0.314921
vt 0.045455 0.393651
vt 0.727273 0.314921
vt 0.818182 0.314921
vt 0.772727 0.393651
vt 0.545455 0.314921
vt 0.636364 0.314921
vt 0.590909 0.393651
vt 0.363637 0.314921
vt 0.454546 0.314921
vt 0.409092 0.393651
vt 0.500000 0.393651
vt 0.454546 0.472382
vt 0.681818 0.393651
vt 0.636364 0.472382
vt 0.863636 0.393651
vt 0.818182 0.472382
vt 0.909091 0.314921
vt 0.136365 0.393651
vt 0.090910 0.472382
vt 0.318182 0.393651
vt 0.272728 0.472382
vt 0.954545 0.236191
vt 1.000000 0.157461
vt 0.409092 0.078731
vt 0.363637 0.000000
s 0
f 1/1/1 14/2/1 13/3/1
f 2/4/2 14/5/2 16/6/2
f 1/7/3 13/8/3 18/9/3
f 1/10/4 18/11/4 20/12/4
f 1/13/5 20/14/5 17/15/5
f 2/4/6 16/6/6 23/16/6
f 3/17/7 15/18/7 25/19/7
f 4/20/8 19/21/8 27/22/8
f 5/23/9 21/24/9 29/25/9
f 6/26/10 22/27/10 31/28/10
f 2/4/11 23/16/11 26/29/11
f 3/17/12 25/19/12 28/30/12
f 4/20/13 27/22/13 30/31/13
f 5/23/14 29/25/14 32/32/14
f 6/26/15 31/28/15 24/33/15
f 7/34/16 33/35/16 38/36/16
f 8/37/17 34/38/17 40/39/17
f 9/40/18 35/41/18 41/42/18
f 10/43/19 36/44/19 42/45/19
f 11/46/20 37/47/20 39/48/20
f 39/48/21 42/49/21 12/50/21
f 39/48/22 37/47/22 42/49/22
f 37/47/23 10/43/23 42/49/23
f 42/45/24 41/51/24 12/52/24
f 42/45/25 36/44/25 41/51/25
f 36/44/26 9/40/26 41/51/26
f 41/42/27 40/53/27 12/54/27
f 41/42/28 35/41/28 40/53/28
f 35/41/29 8/55/29 40/53/29
f 40/39/30 38/56/30 12/57/30
f 40/39/31 34/38/31 38/56/31
f 34/38/32 7/34/32 38/56/32
f 38/36/33 39/58/33 12/59/33
f 38/36/34 33/35/34 39/58/34
f 33/35/35 11/46/35 39/58/35
f 24/33/36 37/47/36 11/46/36
f 24/33/37 31/28/37 37/47/37
f 31/28/38 10/43/38 37/47/38
f 32/32/39 36/44/39 10/43/39
f 32/32/40 29/25/40 36/44/40
f 29/25/41 9/40/41 36/44/41
f 30/31/42 35/41/42 9/40/42
f 30/31/43 27/22/43 35/41/43
f 27/22/44 8/55/44 35/41/44
f 28/30/45 34/38/45 8/37/45
f 28/30/46 25/19/46 34/38/46
f 25/19/47 7/34/47 34/38/47
f 26/29/48 33/35/48 7/34/48
f 26/29/49 23/16/49 33/35/49
f 23/16/50 11/46/50 33/35/50
f 31/28/51 32/32/51 10/43/51
f 31/28/52 22/27/52 32/32/52
f 22/27/53 5/23/53 32/32/53
f 29/25/54 30/31/54 9/40/54
f 29/25/55 21/24/55 30/31/55
f 21/24/56 4/20/56 30/31/56
f 27/22/57 28/60/57 8/55/57
f 27/22/58 19/21/58 28/60/58
f 19/21/59 3/61/59 28/60/59
f 25/19/60 26/29/60 7/34/60
f 25/19/61 15/18/61 26/29/61
f 15/18/62 2/4/62 26/29/62
f 23/16/63 24/33/63 11/46/63
f 23/16/64 16/6/64 24/33/64
f 16/6/65 6/26/65 24/33/65
f 17/15/66 22/27/66 6/26/66
f 17/15/67 20/14/67 22/27/67
f 20/14/68 5/23/68 22/27/68
f 20/12/69 21/24/69 5/23/69
f 20/12/70 18/11/70 21/24/70
f 18/11/71 4/20/71 21/24/71
f 18/9/72 19/21/72 4/20/72
f 18/9/73 13/8/73 19/21/73
f 13/8/74 3/61/74 19/21/74
f 16/6/75 17/62/75 6/26/75
f 16/6/76 14/5/76 17/62/76
f 14/5/77 1/63/77 17/62/77
f 13/3/78 15/18/78 3/17/78
f 13/3/79 14/2/79 15/18/79
f 14/2/80 2/4/80 15/18/80
